<!--?xml version="1.0" encoding="UTF-8" standalone="no"?-->
<svg xmlns:osb="http://www.openswatchbook.org/uri/2009/osb" xmlns:dc="http://purl.org/dc/elements/1.1/" xmlns:cc="http://creativecommons.org/ns#" xmlns:rdf="http://www.w3.org/1999/02/22-rdf-syntax-ns#" xmlns:svg="http://www.w3.org/2000/svg" xmlns="http://www.w3.org/2000/svg" id="svg8" version="1.1" viewBox="0 0 210 297" height="297mm" width="210mm" style="">
  <defs id="defs2">
    <linearGradient osb:paint="solid" id="linearGradient2785">
      <stop id="stop2783" offset="0" style="stop-color:#000000;stop-opacity:1;"></stop>
    </linearGradient>
    <path id="rect1103" height="112.38389" width="130.58692" d="M50.651895 86.266509 L181.238815 86.266509 L181.238815 198.650399 L50.651895 198.650399 Z" class="TOtQfInh_0"></path>
    <path id="rect870" height="125.04687" width="144.83276" d="M54.609074 106.05241 L199.441834 106.05241 L199.441834 231.09928 L54.609074 231.09928 Z" class="TOtQfInh_1"></path>
  </defs>
  <metadata id="metadata5">
    <rdf:rdf>
      <cc:work rdf:about="">
        <dc:format>image/svg+xml</dc:format>
        <dc:type rdf:resource="http://purl.org/dc/dcmitype/StillImage"></dc:type>
        <dc:title></dc:title>
      </cc:work>
    </rdf:rdf>
  </metadata>
  <g style="stroke:#ffffff;stroke-opacity:1;fill:#ffffff;fill-opacity:0;stroke-width:1.91859451;stroke-miterlimit:4;stroke-dasharray:none;fill-rule:nonzero;stroke-dashoffset:0" id="layer1" transform="matrix(1.0486842,0,0,0.88860741,-2.5146504,12.321547)">
    <g style="font-style:normal;font-variant:normal;font-weight:normal;font-stretch:normal;font-size:66.1458px;line-height:0;font-family:'Mekanik LET';-inkscape-font-specification:'Mekanik LET, Normal';font-variant-ligatures:normal;font-variant-caps:normal;font-variant-numeric:normal;font-variant-east-asian:normal;letter-spacing:0.79375px;word-spacing:0px;white-space:pre;shape-inside:url(#rect1103);fill:#ffffff;stroke:#ffffff;stroke-width:1.83565097;stroke-miterlimit:4;stroke-dasharray:none;stroke-opacity:1;fill-opacity:0;fill-rule:nonzero;stroke-dashoffset:0" id="text1101" transform="matrix(1.0934599,0,0,0.99904101,-4.8739342,0.0661269)" aria-label="WAZZEDO">
      <path d="m 52.013672,46.912109 c 0.01106,13.213486 -0.02207,26.427855 0.01648,39.640791 0.03157,1.908939 0.935548,3.990633 2.831179,4.6971 1.810473,0.693648 3.82767,0.695591 5.722561,0.419455 0.903984,-0.171148 1.755578,-0.576464 2.45908,-1.169455 1.879127,1.542579 4.502482,1.483109 6.77539,1.136719 1.632212,-0.256494 3.219311,-1.275486 3.724441,-2.914938 0.753399,-2.132924 0.35094,-4.438807 0.455247,-6.651469 0,-11.889973 0,-23.779947 0,-35.669921 -1.729818,0 -3.459636,0 -5.189453,0 0,13.618489 0,27.236979 0,40.855468 -1.058594,0 -2.117188,0 -3.175782,0 1e-6,-13.618489 0,-27.236979 0,-40.855468 -1.740234,0 -3.480468,0 -5.220703,0 0,13.618489 0,27.236979 0,40.855468 -1.058593,0 -2.117187,0 -3.175781,0 0,-13.618489 0,-27.236979 0,-40.855468 -1.740885,0 -3.481771,0 -5.222656,0 0,0.170573 0,0.341145 0,0.511718 z" style="font-style: normal; font-weight: normal; font-stretch: normal; font-size: 66.1458px; font-family: &quot;Mekanik LET&quot;; font-variant: normal; fill: rgb(0, 0, 0); stroke: rgb(255, 255, 255); stroke-width: 1.83565; stroke-miterlimit: 4; stroke-opacity: 1; fill-opacity: 0; fill-rule: nonzero;" id="path1107" class="TOtQfInh_2"></path>
      <path d="m 84.474609,46.076172 c -1.950581,0.04669 -4.235658,0.159781 -5.628906,1.720703 -1.521168,1.94006 -1.191575,4.569737 -1.232422,6.874219 0,12.279557 0,24.559114 0,36.838672 1.740235,0 3.480469,0 5.220703,0 0,-7.352865 0,-14.70573 0,-22.058594 1.058594,0 2.117188,0 3.175782,0 0,7.352864 0,14.705729 0,22.058594 1.740885,0 3.48177,0 5.222656,0 -0.01134,-13.348116 0.02263,-26.696997 -0.01689,-40.044637 -0.01783,-1.867204 -0.844574,-3.933254 -2.682554,-4.678094 -1.264734,-0.579721 -2.6849,-0.696092 -4.058367,-0.710863 z m 1.535157,4.576172 c 0,4.772786 0,9.545573 0,14.318359 -1.058594,0 -2.117188,0 -3.175782,0 0,-4.772786 0,-9.545573 0,-14.318359 1.058594,0 2.117188,0 3.175782,0 z" style="font-style: normal; font-weight: normal; font-stretch: normal; font-size: 66.1458px; font-family: &quot;Mekanik LET&quot;; font-variant: normal; fill: rgb(0, 0, 0); stroke: rgb(255, 255, 255); stroke-width: 1.83565; stroke-miterlimit: 4; stroke-opacity: 1; fill-opacity: 0; fill-rule: nonzero;" id="path1109" class="TOtQfInh_3"></path>
      <path d="m 94.683594,46.912109 c 0,1.322266 0,2.644532 0,3.966797 2.279948,0 4.559896,0 6.839846,0 -2.530009,13.543609 -5.059546,27.087306 -7.589846,40.63086 4.520833,0 9.041666,0 13.562496,0 0,-1.492839 0,-2.985677 0,-4.478516 -2.49479,0 -4.98958,0 -7.48437,0 2.53001,-13.543609 5.05954,-27.087305 7.58984,-40.630859 -4.30599,0 -8.611977,0 -12.917966,0 0,0.170573 0,0.341145 0,0.511718 z" style="font-style: normal; font-weight: normal; font-stretch: normal; font-size: 66.1458px; font-family: &quot;Mekanik LET&quot;; font-variant: normal; fill: rgb(0, 0, 0); stroke: rgb(255, 255, 255); stroke-width: 1.83565; stroke-miterlimit: 4; stroke-opacity: 1; fill-opacity: 0; fill-rule: nonzero;" id="path1111" class="TOtQfInh_4"></path>
      <path d="m 110.07617,46.912109 c 0,1.322266 0,2.644532 0,3.966797 2.2793,0 4.5586,0 6.83789,0 -2.53,13.543609 -5.05954,27.087306 -7.58984,40.63086 4.52148,0 9.04297,0 13.56445,0 0,-1.492839 0,-2.985677 0,-4.478516 -2.49479,0 -4.98958,0 -7.48437,0 2.53,-13.543609 5.05954,-27.087305 7.58984,-40.630859 -4.30599,0 -8.61198,0 -12.91797,0 0,0.170573 0,0.341145 0,0.511718 z" style="font-style: normal; font-weight: normal; font-stretch: normal; font-size: 66.1458px; font-family: &quot;Mekanik LET&quot;; font-variant: normal; fill: rgb(0, 0, 0); stroke: rgb(255, 255, 255); stroke-width: 1.83565; stroke-miterlimit: 4; stroke-opacity: 1; fill-opacity: 0; fill-rule: nonzero;" id="path1113" class="TOtQfInh_5"></path>
      <path d="m 125.82422,46.912109 c 0,14.865886 0,29.731771 0,44.597657 3.64648,0 7.29297,0 10.93945,0 0,-1.492839 0,-2.985677 0,-4.478516 -1.9056,0 -3.8112,0 -5.71679,0 -10e-6,-5.860026 -10e-6,-11.720052 0,-17.580078 1.90559,0 3.81119,0 5.71679,0 0,-1.49349 0,-2.986979 0,-4.480469 -1.9056,0 -3.8112,0 -5.71679,0 -10e-6,-4.697266 0,-9.394531 0,-14.091797 1.90559,0 3.81119,0 5.71679,0 0,-1.492838 0,-2.985677 0,-4.478515 -3.64648,0 -7.29297,0 -10.93945,0 0,0.170573 0,0.341145 0,0.511718 z" style="font-style: normal; font-weight: normal; font-stretch: normal; font-size: 66.1458px; font-family: &quot;Mekanik LET&quot;; font-variant: normal; fill: rgb(0, 0, 0); stroke: rgb(255, 255, 255); stroke-width: 1.83565; stroke-miterlimit: 4; stroke-opacity: 1; fill-opacity: 0; fill-rule: nonzero;" id="path1115" class="TOtQfInh_6"></path>
      <path d="m 139.92383,46.912109 c 0,14.865886 0,29.731771 0,44.597657 3.04279,-0.06331 6.10506,0.15815 9.13353,-0.199588 2.10643,-0.345622 4.21929,-1.974041 4.34303,-4.237912 0.28361,-3.198181 0.0848,-6.417289 0.14453,-9.624219 -0.0199,-8.416294 0.04,-16.833763 -0.0302,-25.249326 -0.0246,-1.452696 -0.19701,-3.072365 -1.37638,-4.081966 -1.23021,-1.280968 -3.04676,-1.646348 -4.75614,-1.670341 -2.48499,-0.08437 -4.97237,-0.03075 -7.45839,-0.04602 0,0.170573 0,0.341145 0,0.511718 z m 8.39844,3.966797 c 0,12.050782 0,24.101563 0,36.152344 -1.0586,0 -2.11719,0 -3.17579,0 0,-12.050781 0,-24.101563 0,-36.152344 1.0586,0 2.11719,0 3.17579,0 z" style="font-style: normal; font-weight: normal; font-stretch: normal; font-size: 66.1458px; font-family: &quot;Mekanik LET&quot;; font-variant: normal; fill: rgb(0, 0, 0); stroke: rgb(255, 255, 255); stroke-width: 1.83565; stroke-miterlimit: 4; stroke-opacity: 1; fill-opacity: 0; fill-rule: nonzero;" id="path1117" class="TOtQfInh_7"></path>
      <path d="m 163.92383,46.076172 c -1.86018,0.02092 -3.982,0.09201 -5.34837,1.547726 -1.5929,1.478466 -1.4983,3.848584 -1.54616,5.847196 0.0144,11.061606 -0.0288,22.124104 0.0215,33.185156 0.0686,1.802738 0.91075,3.752741 2.67796,4.466871 2.11303,0.890656 4.50394,0.817184 6.73415,0.497973 1.77597,-0.237892 3.47209,-1.456671 3.87526,-3.266524 0.54731,-2.125326 0.21877,-4.34766 0.31029,-6.515508 -0.0157,-10.211842 0.0314,-20.424771 -0.0234,-30.635937 -0.0654,-1.822968 -0.97034,-3.774101 -2.76597,-4.455481 -1.22995,-0.546505 -2.60526,-0.656244 -3.9352,-0.671472 z m 1.50195,4.576172 c 0,12.201172 0,24.402343 0,36.603515 -1.05859,0 -2.11719,0 -3.17578,0 0,-12.201171 0,-24.402343 0,-36.603515 1.05859,0 2.11719,0 3.17578,0 z" style="font-style: normal; font-weight: normal; font-stretch: normal; font-size: 66.1458px; font-family: &quot;Mekanik LET&quot;; font-variant: normal; fill: rgb(0, 0, 0); stroke: rgb(255, 255, 255); stroke-width: 1.83565; stroke-miterlimit: 4; stroke-opacity: 1; fill-opacity: 0; fill-rule: nonzero;" id="path1119" class="TOtQfInh_8"></path>
    </g>
  </g>
<style data-made-with="vivus-instant">.TOtQfInh_0{stroke-dasharray:486 488;stroke-dashoffset:487;animation:TOtQfInh_draw_0 7200ms linear 0ms infinite,TOtQfInh_fade 7200ms linear 0ms infinite;}.TOtQfInh_1{stroke-dasharray:540 542;stroke-dashoffset:541;animation:TOtQfInh_draw_1 7200ms linear 0ms infinite,TOtQfInh_fade 7200ms linear 0ms infinite;}.TOtQfInh_2{stroke-dasharray:295 297;stroke-dashoffset:296;animation:TOtQfInh_draw_2 7200ms linear 0ms infinite,TOtQfInh_fade 7200ms linear 0ms infinite;}.TOtQfInh_3{stroke-dasharray:193 195;stroke-dashoffset:194;animation:TOtQfInh_draw_3 7200ms linear 0ms infinite,TOtQfInh_fade 7200ms linear 0ms infinite;}.TOtQfInh_4{stroke-dasharray:133 135;stroke-dashoffset:134;animation:TOtQfInh_draw_4 7200ms linear 0ms infinite,TOtQfInh_fade 7200ms linear 0ms infinite;}.TOtQfInh_5{stroke-dasharray:133 135;stroke-dashoffset:134;animation:TOtQfInh_draw_5 7200ms linear 0ms infinite,TOtQfInh_fade 7200ms linear 0ms infinite;}.TOtQfInh_6{stroke-dasharray:135 137;stroke-dashoffset:136;animation:TOtQfInh_draw_6 7200ms linear 0ms infinite,TOtQfInh_fade 7200ms linear 0ms infinite;}.TOtQfInh_7{stroke-dasharray:192 194;stroke-dashoffset:193;animation:TOtQfInh_draw_7 7200ms linear 0ms infinite,TOtQfInh_fade 7200ms linear 0ms infinite;}.TOtQfInh_8{stroke-dasharray:190 192;stroke-dashoffset:191;animation:TOtQfInh_draw_8 7200ms linear 0ms infinite,TOtQfInh_fade 7200ms linear 0ms infinite;}@keyframes TOtQfInh_draw{100%{stroke-dashoffset:0; fill-opacity:1;}}@keyframes TOtQfInh_fade{0%{stroke-opacity:1;}94.44444444444444%{stroke-opacity:1; fill-opacity:1;}100%{stroke-opacity:0; fill-opacity:0;}}@keyframes TOtQfInh_draw_0{11.11111111111111%{stroke-dashoffset: 487}38.88888888888889%{ stroke-dashoffset: 0;}100%{ stroke-dashoffset: 0;}}@keyframes TOtQfInh_draw_1{12.847222222222221%{stroke-dashoffset: 541}40.625%{ stroke-dashoffset: 0;}100%{ stroke-dashoffset: 0; fill:rgba(255,255,255,1);}}@keyframes TOtQfInh_draw_2{14.583333333333334%{stroke-dashoffset: 296}42.36111111111111%{ stroke-dashoffset: 0;}100%{ stroke-dashoffset: 0; fill:rgba(255,255,255,1);}}@keyframes TOtQfInh_draw_3{16.319444444444446%{stroke-dashoffset: 194}44.09722222222222%{ stroke-dashoffset: 0;}100%{ stroke-dashoffset: 0; fill:rgba(255,255,255,1);}}@keyframes TOtQfInh_draw_4{18.055555555555554%{stroke-dashoffset: 134}45.83333333333333%{ stroke-dashoffset: 0;}100%{ stroke-dashoffset: 0; fill:rgba(255,255,255,1);}}@keyframes TOtQfInh_draw_5{19.791666666666664%{stroke-dashoffset: 134}47.56944444444444%{ stroke-dashoffset: 0;}100%{ stroke-dashoffset: 0; fill:rgba(255,255,255,1);}}@keyframes TOtQfInh_draw_6{21.52777777777778%{stroke-dashoffset: 136}49.30555555555556%{ stroke-dashoffset: 0;}100%{ stroke-dashoffset: 0; fill:rgba(255,255,255,1);}}@keyframes TOtQfInh_draw_7{23.26388888888889%{stroke-dashoffset: 193}51.041666666666664%{ stroke-dashoffset: 0;}100%{ stroke-dashoffset: 0; fill:rgba(255,255,255,1);}}@keyframes TOtQfInh_draw_8{25%{stroke-dashoffset: 191}52.77777777777778%{ stroke-dashoffset: 0;}100%{ stroke-dashoffset: 0; fill:rgba(255,255,255,1);}}</style></svg>
